<svg xmlns="http://www.w3.org/2000/svg" version="1.1" style="font-family:Lato, &#x27;Helvetica Neue&#x27;, Helvetica, Arial, sans-serif;font-size:18px;background-color:white;text-rendering:optimizeLegibility;-webkit-font-smoothing:antialiased" width="850" height="600"><g class="HeaderView"><g transform="translate(774, 15) scale(0.29)"><svg width="210" height="120" viewBox="0 0 210 120" fill="none" xmlns="http://www.w3.org/2000/svg"><defs>
        <clipPath id="clip0">
            <rect width="210" height="120" fill="white"/>
        </clipPath>
    </defs>
</svg></g><a href="https://ourworldindata.org/grapher/birth-rate-vs-death-rate" style="font-family:&quot;Playfair Display&quot;, Georgia, &quot;Times New Roman&quot;, serif" target="_blank"><text font-size="25.20" x="15.0" y="35.2" fill="#555"><tspan x="15" y="35.160000000000004">Birth rate vs Death rate, 2016</tspan></text></a><text font-size="14.40" x="15.0" y="55.7" fill="#666"><tspan x="15" y="55.72">Both the birth and death rate are given per 1,000 people of the country&#x27;s population. Countries which lie above the</tspan><tspan x="15" y="71.56">grey line have a greater birth than death rate meaning the total population is increasing; those below the line have</tspan><tspan x="15" y="87.4">a declining population.</tspan></text></g><g><g class="AxisBoxView"><g class="HorizontalAxis"><text font-size="12.60" x="316.4" y="554.0"><tspan x="316.427" y="553.98">Deaths per 1,000</tspan></text><text x="83.4" y="533.9" fill="#666" text-anchor="middle" font-size="16.2">2</text><text x="179.8" y="533.9" fill="#666" text-anchor="middle" font-size="16.2">4</text><text x="276.2" y="533.9" fill="#666" text-anchor="middle" font-size="16.2">6</text><text x="372.7" y="533.9" fill="#666" text-anchor="middle" font-size="16.2">8</text><text x="469.1" y="533.9" fill="#666" text-anchor="middle" font-size="16.2">10</text><text x="565.5" y="533.9" fill="#666" text-anchor="middle" font-size="16.2">12</text><text x="662" y="533.9" fill="#666" text-anchor="middle" font-size="16.2">14</text></g><g class="VerticalAxis"><text font-size="12.60" x="-377.7" y="25.1" transform="rotate(-90)"><tspan x="-377.717" y="25.080000000000002">Births per 1,000</tspan></text><text x="55.74" y="512.7" fill="#666" dominant-baseline="middle" text-anchor="end" font-size="16.2">0</text><text x="55.74" y="429" fill="#666" dominant-baseline="middle" text-anchor="end" font-size="16.2">10</text><text x="55.74" y="345.2" fill="#666" dominant-baseline="middle" text-anchor="end" font-size="16.2">20</text><text x="55.74" y="261.5" fill="#666" dominant-baseline="middle" text-anchor="end" font-size="16.2">30</text><text x="55.74" y="177.7" fill="#666" dominant-baseline="middle" text-anchor="end" font-size="16.2">40</text></g><g class="AxisGridLines"><line x1="60.74" y1="512.7" x2="715.00" y2="512.7" stroke="#ccc"></line><line x1="60.74" y1="429" x2="715.00" y2="429" stroke="#ddd" stroke-dasharray="3,2"></line><line x1="60.74" y1="345.2" x2="715.00" y2="345.2" stroke="#ddd" stroke-dasharray="3,2"></line><line x1="60.74" y1="261.5" x2="715.00" y2="261.5" stroke="#ddd" stroke-dasharray="3,2"></line><line x1="60.74" y1="177.7" x2="715.00" y2="177.7" stroke="#ddd" stroke-dasharray="3,2"></line></g><g class="AxisGridLines"><line x1="83.4" y1="512.70" x2="83.4" y2="109.60" stroke="#ddd" stroke-dasharray="3,2"></line><line x1="179.8" y1="512.70" x2="179.8" y2="109.60" stroke="#ddd" stroke-dasharray="3,2"></line><line x1="276.2" y1="512.70" x2="276.2" y2="109.60" stroke="#ddd" stroke-dasharray="3,2"></line><line x1="372.7" y1="512.70" x2="372.7" y2="109.60" stroke="#ddd" stroke-dasharray="3,2"></line><line x1="469.1" y1="512.70" x2="469.1" y2="109.60" stroke="#ddd" stroke-dasharray="3,2"></line><line x1="565.5" y1="512.70" x2="565.5" y2="109.60" stroke="#ddd" stroke-dasharray="3,2"></line><line x1="662" y1="512.70" x2="662" y2="109.60" stroke="#ddd" stroke-dasharray="3,2"></line></g></g><g class="ComparisonLine"><defs><clipPath id="axisBounds-5080"><rect x="60.744" y="109.60000000000001" width="654.256" height="403.09999999999997"></rect></clipPath></defs><path d="M60.7,499.9L67.3,498.7L73.8,497.6L80.4,496.5L86.9,495.3L93.5,494.2L100,493.1L106.5,491.9L113.1,490.8L119.6,489.7L126.2,488.5L132.7,487.4L139.3,486.2L145.8,485.1L152.3,484L158.9,482.8L165.4,481.7L172,480.6L178.5,479.4L185.1,478.3L191.6,477.2L198.1,476L204.7,474.9L211.2,473.7L217.8,472.6L224.3,471.5L230.9,470.3L237.4,469.2L243.9,468.1L250.5,466.9L257,465.8L263.6,464.7L270.1,463.5L276.6,462.4L283.2,461.2L289.7,460.1L296.3,459L302.8,457.8L309.4,456.7L315.9,455.6L322.4,454.4L329,453.3L335.5,452.2L342.1,451L348.6,449.9L355.2,448.7L361.7,447.6L368.2,446.5L374.8,445.3L381.3,444.2L387.9,443.1L394.4,441.9L401,440.8L407.5,439.7L414,438.5L420.6,437.4L427.1,436.2L433.7,435.1L440.2,434L446.8,432.8L453.3,431.7L459.8,430.6L466.4,429.4L472.9,428.3L479.5,427.2L486,426L492.6,424.9L499.1,423.7L505.6,422.6L512.2,421.5L518.7,420.3L525.3,419.2L531.8,418.1L538.4,416.9L544.9,415.8L551.4,414.7L558,413.5L564.5,412.4L571.1,411.2L577.6,410.1L584.1,409L590.7,407.8L597.2,406.7L603.8,405.6L610.3,404.4L616.9,403.3L623.4,402.2L629.9,401L636.5,399.9L643,398.7L649.6,397.6L656.1,396.5L662.7,395.3L669.2,394.2L675.7,393.1L682.3,391.9L688.8,390.8L695.4,389.7L701.9,388.5L708.5,387.4" clip-path="url(#axisBounds-5080)" fill="none" stroke="#ccc"></path></g><g class="PointsWithLabels clickable" clip-path="url(#scatterBounds-5081)" font-family="Arial, sans-serif"><rect x="60.744" y="109.60000000000001" width="654.256" height="403.09999999999997" fill="rgba(255,255,255,0)"></rect><defs><clipPath id="scatterBounds-5081"><rect x="50.744" y="99.60000000000001" width="674.256" height="423.09999999999997"></rect></clipPath></defs><g class="key-China_0"><circle cx="338.00" cy="412.00" r="17.84" fill="#d14e5b" opacity="0.8" stroke="#333" stroke-width="0.7"></circle></g><g class="key-India_0"><circle cx="339.00" cy="353.00" r="17.27" fill="#d14e5b" opacity="0.8" stroke="#333" stroke-width="0.7"></circle></g><g class="key-United-States_0"><circle cx="391.00" cy="408.00" r="8.67" fill="#4d824b" opacity="0.8" stroke="#333" stroke-width="0.7"></circle></g><g class="key-Indonesia_0"><circle cx="330.00" cy="353.00" r="7.84" fill="#d14e5b" opacity="0.8" stroke="#fff" stroke-width="0.7"></circle></g><g class="key-Brazil_0"><circle cx="284.00" cy="394.00" r="7.01" fill="#69c487" opacity="0.8" stroke="#333" stroke-width="0.7"></circle></g><g class="key-Pakistan_0"><circle cx="338.00" cy="276.00" r="6.97" fill="#d14e5b" opacity="0.8" stroke="#333" stroke-width="0.7"></circle></g><g class="key-Nigeria_0"><circle cx="587.00" cy="187.00" r="6.68" fill="#5675c1" opacity="0.8" stroke="#333" stroke-width="0.7"></circle></g><g class="key-Bangladesh_0"><circle cx="241.00" cy="354.00" r="6.20" fill="#d14e5b" opacity="0.8" stroke="#333" stroke-width="0.7"></circle></g><g class="key-Russia_0"><circle cx="608.00" cy="404.00" r="5.96" fill="#ec8e00" opacity="0.8" stroke="#333" stroke-width="0.7"></circle></g><g class="key-Japan_0"><circle cx="493.00" cy="447.00" r="5.63" fill="#d14e5b" opacity="0.8" stroke="#333" stroke-width="0.7"></circle></g><g class="key-Mexico_0"><circle cx="220.00" cy="360.00" r="5.54" fill="#4d824b" opacity="0.8" stroke="#fff" stroke-width="0.7"></circle></g><g class="key-Philippines_0"><circle cx="301.00" cy="318.00" r="5.13" fill="#d14e5b" opacity="0.8" stroke="#333" stroke-width="0.7"></circle></g><g class="key-Ethiopia_0"><circle cx="316.00" cy="246.00" r="5.13" fill="#5675c1" opacity="0.8" stroke="#333" stroke-width="0.7"></circle></g><g class="key-Egypt_0"><circle cx="271.00" cy="290.00" r="4.92" fill="#5675c1" opacity="0.8" stroke="#333" stroke-width="0.7"></circle></g><g class="key-Vietnam_0"><circle cx="267.00" cy="372.00" r="4.90" fill="#d14e5b" opacity="0.8" stroke="#333" stroke-width="0.7"></circle></g><g class="key-Germany_0"><circle cx="527.00" cy="434.00" r="4.64" fill="#ec8e00" opacity="0.8" stroke="#333" stroke-width="0.7"></circle></g><g class="key-Turkey_0"><circle cx="267.00" cy="376.00" r="4.58" fill="#d14e5b" opacity="0.8" stroke="#fff" stroke-width="0.7"></circle></g><g class="key-Iran_0"><circle cx="204.00" cy="374.00" r="4.57" fill="#d14e5b" opacity="0.8" stroke="#333" stroke-width="0.7"></circle></g><g class="key-Democratic-Republic-of-Congo_0"><circle cx="465.00" cy="158.00" r="4.55" fill="#5675c1" opacity="0.8" stroke="#333" stroke-width="0.7"></circle></g><g class="key-Thailand_0"><circle cx="366.00" cy="426.00" r="4.31" fill="#d14e5b" opacity="0.8" stroke="#333" stroke-width="0.7"></circle></g><g class="key-United-Kingdom_0"><circle cx="425.00" cy="413.00" r="4.24" fill="#ec8e00" opacity="0.8" stroke="#fff" stroke-width="0.7"></circle></g><g class="key-France_0"><circle cx="411.00" cy="414.00" r="4.19" fill="#ec8e00" opacity="0.8" stroke="#fff" stroke-width="0.7"></circle></g><g class="key-Italy_0"><circle cx="473.00" cy="447.00" r="4.09" fill="#ec8e00" opacity="0.8" stroke="#fff" stroke-width="0.7"></circle></g><g class="key-South-Africa_0"><circle cx="459.00" cy="337.00" r="3.96" fill="#5675c1" opacity="0.8" stroke="#333" stroke-width="0.7"></circle></g><g class="key-Tanzania_0"><circle cx="311.00" cy="192.00" r="3.87" fill="#5675c1" opacity="0.8" stroke="#333" stroke-width="0.7"></circle></g><g class="key-Myanmar_0"><circle cx="379.00" cy="363.00" r="3.87" fill="#d14e5b" opacity="0.8" stroke="#333" stroke-width="0.7"></circle></g><g class="key-South-Korea_0"><circle cx="252.00" cy="446.00" r="3.81" fill="#d14e5b" opacity="0.8" stroke="#333" stroke-width="0.7"></circle></g><g class="key-Kenya_0"><circle cx="263.00" cy="250.00" r="3.76" fill="#5675c1" opacity="0.8" stroke="#333" stroke-width="0.7"></circle></g><g class="key-Colombia_0"><circle cx="276.00" cy="385.00" r="3.73" fill="#69c487" opacity="0.8" stroke="#fff" stroke-width="0.7"></circle></g><g class="key-Spain_0"><circle cx="411.00" cy="439.00" r="3.68" fill="#ec8e00" opacity="0.8" stroke="#333" stroke-width="0.7"></circle></g><g class="key-Ukraine_0"><circle cx="695.00" cy="426.00" r="3.63" fill="#ec8e00" opacity="0.8" stroke="#333" stroke-width="0.7"></circle></g><g class="key-Argentina_0"><circle cx="351.00" cy="368.00" r="3.59" fill="#69c487" opacity="0.8" stroke="#fff" stroke-width="0.7"></circle></g><g class="key-Algeria_0"><circle cx="216.00" cy="319.00" r="3.50" fill="#5675c1" opacity="0.8" stroke="#333" stroke-width="0.7"></circle></g><g class="key-Sudan_0"><circle cx="345.00" cy="237.00" r="3.47" fill="#5675c1" opacity="0.8" stroke="#fff" stroke-width="0.7"></circle></g><g class="key-Uganda_0"><circle cx="406.00" cy="159.00" r="3.47" fill="#5675c1" opacity="0.8" stroke="#333" stroke-width="0.7"></circle></g><g class="key-Poland_0"><circle cx="478.00" cy="428.00" r="3.41" fill="#ec8e00" opacity="0.8" stroke="#333" stroke-width="0.7"></circle></g><g class="key-Iraq_0"><circle cx="229.00" cy="234.00" r="3.37" fill="#d14e5b" opacity="0.8" stroke="#333" stroke-width="0.7"></circle></g><g class="key-Canada_0"><circle cx="348.00" cy="422.00" r="3.36" fill="#4d824b" opacity="0.8" stroke="#fff" stroke-width="0.7"></circle></g><g class="key-Afghanistan_0"><circle cx="312.00" cy="234.00" r="3.33" fill="#d14e5b" opacity="0.8" stroke="#fff" stroke-width="0.7"></circle></g><g class="key-Morocco_0"><circle cx="234.00" cy="345.00" r="3.32" fill="#5675c1" opacity="0.8" stroke="#fff" stroke-width="0.7"></circle></g><g class="key-Saudi-Arabia_0"><circle cx="158.00" cy="348.00" r="3.23" fill="#d14e5b" opacity="0.8" stroke="#333" stroke-width="0.7"></circle></g><g class="key-Uzbekistan_0"><circle cx="223.00" cy="321.00" r="3.19" fill="#d14e5b" opacity="0.8" stroke="#fff" stroke-width="0.7"></circle></g><g class="key-Peru_0"><circle cx="259.00" cy="351.00" r="3.17" fill="#69c487" opacity="0.8" stroke="#fff" stroke-width="0.7"></circle></g><g class="key-Malaysia_0"><circle cx="224.00" cy="369.00" r="3.17" fill="#d14e5b" opacity="0.8" stroke="#fff" stroke-width="0.7"></circle></g><g class="key-Venezuela_0"><circle cx="257.00" cy="353.00" r="3.14" fill="#69c487" opacity="0.8" stroke="#fff" stroke-width="0.7"></circle></g><g class="key-Angola_0"><circle cx="397.00" cy="162.00" r="3.10" fill="#5675c1" opacity="0.8" stroke="#fff" stroke-width="0.7"></circle></g><g class="key-Ghana_0"><circle cx="379.00" cy="252.00" r="3.09" fill="#5675c1" opacity="0.8" stroke="#333" stroke-width="0.7"></circle></g><g class="key-Mozambique_0"><circle cx="473.00" cy="186.00" r="3.06" fill="#5675c1" opacity="0.8" stroke="#333" stroke-width="0.7"></circle></g><g class="key-Nepal_0"><circle cx="289.00" cy="347.00" r="3.04" fill="#d14e5b" opacity="0.8" stroke="#fff" stroke-width="0.7"></circle></g><g class="key-Yemen_0"><circle cx="298.00" cy="247.00" r="3.04" fill="#d14e5b" opacity="0.8" stroke="#fff" stroke-width="0.7"></circle></g><g class="key-North-Korea_0"><circle cx="413.00" cy="396.00" r="2.97" fill="#d14e5b" opacity="0.8" stroke="#fff" stroke-width="0.7"></circle></g><g class="key-Madagascar_0"><circle cx="292.00" cy="235.00" r="2.95" fill="#5675c1" opacity="0.8" stroke="#fff" stroke-width="0.7"></circle></g><g class="key-Australia_0"><circle cx="300.00" cy="408.00" r="2.93" fill="#a652ba" opacity="0.8" stroke="#fff" stroke-width="0.7"></circle></g><g class="key-Cameroon_0"><circle cx="472.00" cy="208.00" r="2.92" fill="#5675c1" opacity="0.8" stroke="#333" stroke-width="0.7"></circle></g><g class="key-Cote-d__0027Ivoire_0"><circle cx="576.00" cy="204.00" r="2.91" fill="#5675c1" opacity="0.8" stroke="#333" stroke-width="0.7"></circle></g><g class="key-Sri-Lanka_0"><circle cx="319.00" cy="384.00" r="2.80" fill="#d14e5b" opacity="0.8" stroke="#fff" stroke-width="0.7"></circle></g><g class="key-Niger_0"><circle cx="454.00" cy="109.00" r="2.80" fill="#5675c1" opacity="0.8" stroke="#333" stroke-width="0.7"></circle></g><g class="key-Romania_0"><circle cx="613.00" cy="432.00" r="2.76" fill="#ec8e00" opacity="0.8" stroke="#fff" stroke-width="0.7"></circle></g><g class="key-Burkina-Faso_0"><circle cx="400.00" cy="186.00" r="2.71" fill="#5675c1" opacity="0.8" stroke="#333" stroke-width="0.7"></circle></g><g class="key-Chile_0"><circle cx="281.00" cy="401.00" r="2.69" fill="#69c487" opacity="0.8" stroke="#333" stroke-width="0.7"></circle></g><g class="key-Mali_0"><circle cx="484.00" cy="155.00" r="2.68" fill="#5675c1" opacity="0.8" stroke="#fff" stroke-width="0.7"></circle></g><g class="key-Kazakhstan_0"><circle cx="342.00" cy="324.00" r="2.67" fill="#d14e5b" opacity="0.8" stroke="#fff" stroke-width="0.7"></circle></g><g class="key-Malawi_0"><circle cx="337.00" cy="205.00" r="2.65" fill="#5675c1" opacity="0.8" stroke="#333" stroke-width="0.7"></circle></g><g class="key-Netherlands_0"><circle cx="406.00" cy="428.00" r="2.64" fill="#ec8e00" opacity="0.8" stroke="#fff" stroke-width="0.7"></circle></g><g class="key-Guatemala_0"><circle cx="220.00" cy="301.00" r="2.62" fill="#4d824b" opacity="0.8" stroke="#333" stroke-width="0.7"></circle></g><g class="key-Ecuador_0"><circle cx="233.00" cy="343.00" r="2.62" fill="#69c487" opacity="0.8" stroke="#fff" stroke-width="0.7"></circle></g><g class="key-Zambia_0"><circle cx="362.00" cy="193.00" r="2.61" fill="#5675c1" opacity="0.8" stroke="#333" stroke-width="0.7"></circle></g><g class="key-Cambodia_0"><circle cx="278.00" cy="317.00" r="2.59" fill="#d14e5b" opacity="0.8" stroke="#fff" stroke-width="0.7"></circle></g><g class="key-Senegal_0"><circle cx="271.00" cy="214.00" r="2.55" fill="#5675c1" opacity="0.8" stroke="#333" stroke-width="0.7"></circle></g><g class="key-Chad_0"><circle cx="611.00" cy="149.00" r="2.54" fill="#5675c1" opacity="0.8" stroke="#fff" stroke-width="0.7"></circle></g><g class="key-Somalia_0"><circle cx="535.00" cy="149.00" r="2.52" fill="#5675c1" opacity="0.8" stroke="#fff" stroke-width="0.7"></circle></g><g class="key-Zimbabwe_0"><circle cx="376.00" cy="235.00" r="2.51" fill="#5675c1" opacity="0.8" stroke="#333" stroke-width="0.7"></circle></g><g class="key-Guinea_0"><circle cx="433.00" cy="212.00" r="2.41" fill="#5675c1" opacity="0.8" stroke="#333" stroke-width="0.7"></circle></g><g class="key-Rwanda_0"><circle cx="274.00" cy="252.00" r="2.40" fill="#5675c1" opacity="0.8" stroke="#fff" stroke-width="0.7"></circle></g><g class="key-Belgium_0"><circle cx="445.00" cy="422.00" r="2.39" fill="#ec8e00" opacity="0.8" stroke="#fff" stroke-width="0.7"></circle></g><g class="key-Cuba_0"><circle cx="372.00" cy="421.00" r="2.39" fill="#4d824b" opacity="0.8" stroke="#fff" stroke-width="0.7"></circle></g><g class="key-Tunisia_0"><circle cx="292.00" cy="359.00" r="2.39" fill="#5675c1" opacity="0.8" stroke="#fff" stroke-width="0.7"></circle></g><g class="key-Bolivia_0"><circle cx="338.00" cy="318.00" r="2.37" fill="#69c487" opacity="0.8" stroke="#fff" stroke-width="0.7"></circle></g><g class="key-Benin_0"><circle cx="429.00" cy="202.00" r="2.37" fill="#5675c1" opacity="0.8" stroke="#fff" stroke-width="0.7"></circle></g><g class="key-Haiti_0"><circle cx="401.00" cy="310.00" r="2.37" fill="#4d824b" opacity="0.8" stroke="#333" stroke-width="0.7"></circle></g><g class="key-South-Sudan_0"><circle cx="516.00" cy="211.00" r="2.37" fill="#5675c1" opacity="0.8" stroke="#fff" stroke-width="0.7"></circle></g><g class="key-Czech-Republic_0"><circle cx="478.00" cy="423.00" r="2.36" fill="#ec8e00" opacity="0.8" stroke="#fff" stroke-width="0.7"></circle></g><g class="key-Greece_0"><circle cx="517.00" cy="440.00" r="2.36" fill="#ec8e00" opacity="0.8" stroke="#fff" stroke-width="0.7"></circle></g><g class="key-Burundi_0"><circle cx="507.00" cy="158.00" r="2.35" fill="#5675c1" opacity="0.8" stroke="#fff" stroke-width="0.7"></circle></g><g class="key-Dominican-Republic_0"><circle cx="281.00" cy="343.00" r="2.34" fill="#4d824b" opacity="0.8" stroke="#fff" stroke-width="0.7"></circle></g><g class="key-Portugal_0"><circle cx="502.00" cy="442.00" r="2.34" fill="#ec8e00" opacity="0.8" stroke="#fff" stroke-width="0.7"></circle></g><g class="key-Sweden_0"><circle cx="430.00" cy="413.00" r="2.32" fill="#ec8e00" opacity="0.8" stroke="#333" stroke-width="0.7"></circle></g><g class="key-Hungary_0"><circle cx="613.00" cy="431.00" r="2.31" fill="#ec8e00" opacity="0.8" stroke="#333" stroke-width="0.7"></circle></g><g class="key-Azerbaijan_0"><circle cx="266.00" cy="376.00" r="2.31" fill="#d14e5b" opacity="0.8" stroke="#fff" stroke-width="0.7"></circle></g><g class="key-Jordan_0"><circle cx="171.00" cy="291.00" r="2.30" fill="#d14e5b" opacity="0.8" stroke="#333" stroke-width="0.7"></circle></g><g class="key-Belarus_0"><circle cx="594.00" cy="408.00" r="2.30" fill="#ec8e00" opacity="0.8" stroke="#fff" stroke-width="0.7"></circle></g><g class="key-United-Arab-Emirates_0"><circle cx="63.00" cy="432.00" r="2.30" fill="#d14e5b" opacity="0.8" stroke="#333" stroke-width="0.7"></circle></g><g class="key-Honduras_0"><circle cx="218.00" cy="330.00" r="2.29" fill="#4d824b" opacity="0.8" stroke="#333" stroke-width="0.7"></circle></g><g class="key-Serbia_0"><circle cx="676.00" cy="435.00" r="2.27" fill="#ec8e00" opacity="0.8" stroke="#fff" stroke-width="0.7"></circle></g><g class="key-Austria_0"><circle cx="430.00" cy="429.00" r="2.27" fill="#ec8e00" opacity="0.8" stroke="#fff" stroke-width="0.7"></circle></g><g class="key-Tajikistan_0"><circle cx="235.00" cy="271.00" r="2.26" fill="#d14e5b" opacity="0.8" stroke="#333" stroke-width="0.7"></circle></g><g class="key-Switzerland_0"><circle cx="363.00" cy="424.00" r="2.25" fill="#ec8e00" opacity="0.8" stroke="#fff" stroke-width="0.7"></circle></g><g class="key-Papua-New-Guinea_0"><circle cx="329.00" cy="281.00" r="2.24" fill="#a652ba" opacity="0.8" stroke="#fff" stroke-width="0.7"></circle></g><g class="key-Israel_0"><circle cx="232.00" cy="335.00" r="2.23" fill="#d14e5b" opacity="0.8" stroke="#fff" stroke-width="0.7"></circle></g><g class="key-Togo_0"><circle cx="405.00" cy="227.00" r="2.20" fill="#5675c1" opacity="0.8" stroke="#fff" stroke-width="0.7"></circle></g><g class="key-Sierra-Leone_0"><circle cx="601.00" cy="219.00" r="2.19" fill="#5675c1" opacity="0.8" stroke="#333" stroke-width="0.7"></circle></g><g class="key-Hong-Kong_0"><circle cx="295.00" cy="443.00" r="2.19" fill="#d14e5b" opacity="0.8" stroke="#fff" stroke-width="0.7"></circle></g><g class="key-Bulgaria_0"><circle cx="715.00" cy="436.00" r="2.19" fill="#ec8e00" opacity="0.8" stroke="#333" stroke-width="0.7"></circle></g><g class="key-Laos_0"><circle cx="308.00" cy="313.00" r="2.17" fill="#d14e5b" opacity="0.8" stroke="#fff" stroke-width="0.7"></circle></g><g class="key-Paraguay_0"><circle cx="263.00" cy="337.00" r="2.17" fill="#69c487" opacity="0.8" stroke="#fff" stroke-width="0.7"></circle></g><g class="key-Lebanon_0"><circle cx="209.00" cy="383.00" r="2.16" fill="#d14e5b" opacity="0.8" stroke="#333" stroke-width="0.7"></circle></g><g class="key-Libya_0"><circle cx="238.00" cy="348.00" r="2.15" fill="#5675c1" opacity="0.8" stroke="#fff" stroke-width="0.7"></circle></g><g class="key-El-Salvador_0"><circle cx="311.00" cy="357.00" r="2.14" fill="#4d824b" opacity="0.8" stroke="#333" stroke-width="0.7"></circle></g><g class="key-Nicaragua_0"><circle cx="217.00" cy="349.00" r="2.14" fill="#4d824b" opacity="0.8" stroke="#fff" stroke-width="0.7"></circle></g><g class="key-Kyrgyzstan_0"><circle cx="252.00" cy="295.00" r="2.13" fill="#d14e5b" opacity="0.8" stroke="#fff" stroke-width="0.7"></circle></g><g class="key-Denmark_0"><circle cx="430.00" cy="422.00" r="2.11" fill="#ec8e00" opacity="0.8" stroke="#fff" stroke-width="0.7"></circle></g><g class="key-Turkmenistan_0"><circle cx="328.00" cy="300.00" r="2.11" fill="#d14e5b" opacity="0.8" stroke="#333" stroke-width="0.7"></circle></g><g class="key-Singapore_0"><circle cx="218.00" cy="434.00" r="2.11" fill="#d14e5b" opacity="0.8" stroke="#fff" stroke-width="0.7"></circle></g><g class="key-Finland_0"><circle cx="459.00" cy="432.00" r="2.10" fill="#ec8e00" opacity="0.8" stroke="#fff" stroke-width="0.7"></circle></g><g class="key-Slovakia_0"><circle cx="449.00" cy="423.00" r="2.10" fill="#ec8e00" opacity="0.8" stroke="#fff" stroke-width="0.7"></circle></g><g class="key-Norway_0"><circle cx="363.00" cy="418.00" r="2.09" fill="#ec8e00" opacity="0.8" stroke="#fff" stroke-width="0.7"></circle></g><g class="key-Congo_0"><circle cx="340.00" cy="222.00" r="2.07" fill="#5675c1" opacity="0.8" stroke="#333" stroke-width="0.7"></circle></g><g class="key-Costa-Rica_0"><circle cx="225.00" cy="393.00" r="2.07" fill="#4d824b" opacity="0.8" stroke="#fff" stroke-width="0.7"></circle></g><g class="key-Ireland_0"><circle cx="295.00" cy="399.00" r="2.06" fill="#ec8e00" opacity="0.8" stroke="#fff" stroke-width="0.7"></circle></g><g class="key-New-Zealand_0"><circle cx="307.00" cy="406.00" r="2.05" fill="#a652ba" opacity="0.8" stroke="#fff" stroke-width="0.7"></circle></g><g class="key-Palestine_0"><circle cx="155.00" cy="246.00" r="2.05" fill="#d14e5b" opacity="0.8" stroke="#333" stroke-width="0.7"></circle></g><g class="key-Liberia_0"><circle cx="367.00" cy="225.00" r="2.05" fill="#5675c1" opacity="0.8" stroke="#fff" stroke-width="0.7"></circle></g><g class="key-Central-African-Republic_0"><circle cx="639.00" cy="213.00" r="2.05" fill="#5675c1" opacity="0.8" stroke="#fff" stroke-width="0.7"></circle></g><g class="key-Oman_0"><circle cx="109.00" cy="355.00" r="2.04" fill="#d14e5b" opacity="0.8" stroke="#333" stroke-width="0.7"></circle></g><g class="key-Croatia_0"><circle cx="580.00" cy="437.00" r="2.03" fill="#ec8e00" opacity="0.8" stroke="#fff" stroke-width="0.7"></circle></g><g class="key-Mauritania_0"><circle cx="366.00" cy="226.00" r="2.03" fill="#5675c1" opacity="0.8" stroke="#fff" stroke-width="0.7"></circle></g><g class="key-Moldova_0"><circle cx="540.00" cy="426.00" r="2.02" fill="#ec8e00" opacity="0.8" stroke="#fff" stroke-width="0.7"></circle></g><g class="key-Panama_0"><circle cx="228.00" cy="349.00" r="2.02" fill="#4d824b" opacity="0.8" stroke="#fff" stroke-width="0.7"></circle></g><g class="key-Georgia_0"><circle cx="624.00" cy="399.00" r="2.02" fill="#d14e5b" opacity="0.8" stroke="#fff" stroke-width="0.7"></circle></g><g class="key-Kuwait_0"><circle cx="119.00" cy="375.00" r="2.02" fill="#d14e5b" opacity="0.8" stroke="#333" stroke-width="0.7"></circle></g><g class="key-Uruguay_0"><circle cx="438.00" cy="395.00" r="1.99" fill="#69c487" opacity="0.8" stroke="#fff" stroke-width="0.7"></circle></g><g class="key-Bosnia-and-Herzegovina_0"><circle cx="519.00" cy="436.00" r="1.98" fill="#ec8e00" opacity="0.8" stroke="#fff" stroke-width="0.7"></circle></g><g class="key-Eritrea_0"><circle cx="317.00" cy="243.00" r="1.98" fill="#5675c1" opacity="0.8" stroke="#fff" stroke-width="0.7"></circle></g><g class="key-Puerto-Rico_0"><circle cx="377.00" cy="437.00" r="1.98" fill="#4d824b" opacity="0.8" stroke="#fff" stroke-width="0.7"></circle></g><g class="key-Mongolia_0"><circle cx="291.00" cy="312.00" r="1.97" fill="#d14e5b" opacity="0.8" stroke="#fff" stroke-width="0.7"></circle></g><g class="key-Armenia_0"><circle cx="454.00" cy="400.00" r="1.96" fill="#d14e5b" opacity="0.8" stroke="#fff" stroke-width="0.7"></circle></g><g class="key-Jamaica_0"><circle cx="323.00" cy="373.00" r="1.96" fill="#4d824b" opacity="0.8" stroke="#333" stroke-width="0.7"></circle></g><g class="key-Lithuania_0"><circle cx="676.00" cy="423.00" r="1.96" fill="#ec8e00" opacity="0.8" stroke="#fff" stroke-width="0.7"></circle></g><g class="key-Albania_0"><circle cx="342.00" cy="413.00" r="1.96" fill="#ec8e00" opacity="0.8" stroke="#fff" stroke-width="0.7"></circle></g><g class="key-Qatar_0"><circle cx="60.00" cy="427.00" r="1.94" fill="#d14e5b" opacity="0.8" stroke="#fff" stroke-width="0.7"></circle></g><g class="key-Namibia_0"><circle cx="335.00" cy="268.00" r="1.93" fill="#5675c1" opacity="0.8" stroke="#fff" stroke-width="0.7"></circle></g><g class="key-Botswana_0"><circle cx="309.00" cy="314.00" r="1.91" fill="#5675c1" opacity="0.8" stroke="#fff" stroke-width="0.7"></circle></g><g class="key-Gambia_0"><circle cx="375.00" cy="182.00" r="1.91" fill="#5675c1" opacity="0.8" stroke="#fff" stroke-width="0.7"></circle></g><g class="key-Macedonia_0"><circle cx="459.00" cy="418.00" r="1.91" fill="#ec8e00" opacity="0.8" stroke="#fff" stroke-width="0.7"></circle></g><g class="key-Lesotho_0"><circle cx="599.00" cy="279.00" r="1.91" fill="#5675c1" opacity="0.8" stroke="#333" stroke-width="0.7"></circle></g><g class="key-Slovenia_0"><circle cx="445.00" cy="429.00" r="1.91" fill="#ec8e00" opacity="0.8" stroke="#fff" stroke-width="0.7"></circle></g><g class="key-Gabon_0"><circle cx="354.00" cy="265.00" r="1.90" fill="#5675c1" opacity="0.8" stroke="#fff" stroke-width="0.7"></circle></g><g class="key-Latvia_0"><circle cx="690.00" cy="418.00" r="1.90" fill="#ec8e00" opacity="0.8" stroke="#fff" stroke-width="0.7"></circle></g><g class="key-Guinea__002dBissau_0"><circle cx="495.00" cy="206.00" r="1.89" fill="#5675c1" opacity="0.8" stroke="#fff" stroke-width="0.7"></circle></g><g class="key-Bahrain_0"><circle cx="100.00" cy="389.00" r="1.87" fill="#d14e5b" opacity="0.8" stroke="#333" stroke-width="0.7"></circle></g><g class="key-Trinidad-and-Tobago_0"><circle cx="450.00" cy="398.00" r="1.87" fill="#4d824b" opacity="0.8" stroke="#fff" stroke-width="0.7"></circle></g><g class="key-Estonia_0"><circle cx="551.00" cy="423.00" r="1.86" fill="#ec8e00" opacity="0.8" stroke="#fff" stroke-width="0.7"></circle></g><g class="key-Mauritius_0"><circle cx="377.00" cy="425.00" r="1.86" fill="#5675c1" opacity="0.8" stroke="#fff" stroke-width="0.7"></circle></g><g class="key-Timor_0"><circle cx="253.00" cy="219.00" r="1.86" fill="#d14e5b" opacity="0.8" stroke="#fff" stroke-width="0.7"></circle></g><g class="key-Equatorial-Guinea_0"><circle cx="478.00" cy="227.00" r="1.86" fill="#5675c1" opacity="0.8" stroke="#333" stroke-width="0.7"></circle></g><g class="key-Cyprus_0"><circle cx="319.00" cy="422.00" r="1.86" fill="#ec8e00" opacity="0.8" stroke="#333" stroke-width="0.7"></circle></g><g class="key-Swaziland_0"><circle cx="449.00" cy="271.00" r="1.85" fill="#5675c1" opacity="0.8" stroke="#333" stroke-width="0.7"></circle></g><g class="key-Djibouti_0"><circle cx="389.00" cy="320.00" r="1.84" fill="#5675c1" opacity="0.8" stroke="#fff" stroke-width="0.7"></circle></g><g class="key-Fiji_0"><circle cx="328.00" cy="350.00" r="1.84" fill="#a652ba" opacity="0.8" stroke="#fff" stroke-width="0.7"></circle></g><g class="key-Comoros_0"><circle cx="343.00" cy="237.00" r="1.83" fill="#5675c1" opacity="0.8" stroke="#fff" stroke-width="0.7"></circle></g><g class="key-Guyana_0"><circle cx="382.00" cy="340.00" r="1.83" fill="#69c487" opacity="0.8" stroke="#333" stroke-width="0.7"></circle></g><g class="key-Bhutan_0"><circle cx="277.00" cy="360.00" r="1.83" fill="#d14e5b" opacity="0.8" stroke="#fff" stroke-width="0.7"></circle></g><g class="key-Montenegro_0"><circle cx="462.00" cy="417.00" r="1.82" fill="#ec8e00" opacity="0.8" stroke="#fff" stroke-width="0.7"></circle></g><g class="key-Solomon-Islands_0"><circle cx="217.00" cy="272.00" r="1.82" fill="#a652ba" opacity="0.8" stroke="#fff" stroke-width="0.7"></circle></g><g class="key-Macao_0"><circle cx="170.00" cy="411.00" r="1.82" fill="#d14e5b" opacity="0.8" stroke="#333" stroke-width="0.7"></circle></g><g class="key-Luxembourg_0"><circle cx="314.00" cy="425.00" r="1.82" fill="#ec8e00" opacity="0.8" stroke="#fff" stroke-width="0.7"></circle></g><g class="key-Suriname_0"><circle cx="339.00" cy="360.00" r="1.82" fill="#69c487" opacity="0.8" stroke="#fff" stroke-width="0.7"></circle></g><g class="key-Cape-Verde_0"><circle cx="253.00" cy="337.00" r="1.82" fill="#5675c1" opacity="0.8" stroke="#fff" stroke-width="0.7"></circle></g><g class="key-Maldives_0"><circle cx="147.00" cy="359.00" r="1.81" fill="#d14e5b" opacity="0.8" stroke="#333" stroke-width="0.7"></circle></g><g class="key-Malta_0"><circle cx="353.00" cy="427.00" r="1.81" fill="#ec8e00" opacity="0.8" stroke="#fff" stroke-width="0.7"></circle></g><g class="key-Brunei_0"><circle cx="159.00" cy="379.00" r="1.81" fill="#d14e5b" opacity="0.8" stroke="#333" stroke-width="0.7"></circle></g><g class="key-Bahamas_0"><circle cx="293.00" cy="393.00" r="1.81" fill="#4d824b" opacity="0.8" stroke="#fff" stroke-width="0.7"></circle></g><g class="key-Belize_0"><circle cx="251.00" cy="324.00" r="1.81" fill="#4d824b" opacity="0.8" stroke="#fff" stroke-width="0.7"></circle></g><g class="key-Iceland_0"><circle cx="319.00" cy="412.00" r="1.80" fill="#ec8e00" opacity="0.8" stroke="#fff" stroke-width="0.7"></circle></g><g class="key-Barbados_0"><circle cx="505.00" cy="413.00" r="1.80" fill="#4d824b" opacity="0.8" stroke="#333" stroke-width="0.7"></circle></g><g class="key-Vanuatu_0"><circle cx="217.00" cy="296.00" r="1.80" fill="#a652ba" opacity="0.8" stroke="#fff" stroke-width="0.7"></circle></g><g class="key-French-Polynesia_0"><circle cx="249.00" cy="383.00" r="1.80" fill="#a652ba" opacity="0.8" stroke="#fff" stroke-width="0.7"></circle></g><g class="key-New-Caledonia_0"><circle cx="261.00" cy="383.00" r="1.80" fill="#a652ba" opacity="0.8" stroke="#fff" stroke-width="0.7"></circle></g><g class="key-Sao-Tome-and-Principe_0"><circle cx="309.00" cy="229.00" r="1.80" fill="#5675c1" opacity="0.8" stroke="#fff" stroke-width="0.7"></circle></g><g class="key-Samoa_0"><circle cx="226.00" cy="305.00" r="1.80" fill="#a652ba" opacity="0.8" stroke="#fff" stroke-width="0.7"></circle></g><g class="key-Saint-Lucia_0"><circle cx="348.00" cy="411.00" r="1.79" fill="#4d824b" opacity="0.8" stroke="#fff" stroke-width="0.7"></circle></g><g class="key-Channel-Islands_0"><circle cx="420.00" cy="434.00" r="1.79" fill="#ec8e00" opacity="0.8" stroke="#fff" stroke-width="0.7"></circle></g><g class="key-Guam_0"><circle cx="231.00" cy="372.00" r="1.79" fill="#a652ba" opacity="0.8" stroke="#fff" stroke-width="0.7"></circle></g><g class="key-Curacao_0"><circle cx="435.00" cy="418.00" r="1.79" fill="#4d824b" opacity="0.8" stroke="#fff" stroke-width="0.7"></circle></g><g class="key-Kiribati_0"><circle cx="323.00" cy="276.00" r="1.79" fill="#a652ba" opacity="0.8" stroke="#fff" stroke-width="0.7"></circle></g><g class="key-Grenada_0"><circle cx="329.00" cy="356.00" r="1.79" fill="#4d824b" opacity="0.8" stroke="#fff" stroke-width="0.7"></circle></g><g class="key-Micronesia-__0028country__0029_0"><circle cx="286.00" cy="314.00" r="1.79" fill="#a652ba" opacity="0.8" stroke="#fff" stroke-width="0.7"></circle></g><g class="key-Saint-Vincent-and-the-Grenadines_0"><circle cx="333.00" cy="382.00" r="1.79" fill="#4d824b" opacity="0.8" stroke="#fff" stroke-width="0.7"></circle></g><g class="key-Aruba_0"><circle cx="409.00" cy="420.00" r="1.79" fill="#4d824b" opacity="0.8" stroke="#fff" stroke-width="0.7"></circle></g><g class="key-United-States-Virgin-Islands_0"><circle cx="353.00" cy="403.00" r="1.79" fill="#4d824b" opacity="0.8" stroke="#fff" stroke-width="0.7"></circle></g><g class="key-Tonga_0"><circle cx="275.00" cy="311.00" r="1.79" fill="#a652ba" opacity="0.8" stroke="#fff" stroke-width="0.7"></circle></g><g class="key-Seychelles_0"><circle cx="367.00" cy="367.00" r="1.79" fill="#5675c1" opacity="0.8" stroke="#fff" stroke-width="0.7"></circle></g><g class="key-Antigua-and-Barbuda_0"><circle cx="266.00" cy="376.00" r="1.79" fill="#4d824b" opacity="0.8" stroke="#fff" stroke-width="0.7"></circle></g><g class="key-Andorra_0"><circle cx="194.00" cy="439.00" r="1.79" fill="#ec8e00" opacity="0.8" stroke="#333" stroke-width="0.7"></circle></g><g class="key-Dominica_0"><circle cx="382.00" cy="412.00" r="1.79" fill="#4d824b" opacity="0.8" stroke="#fff" stroke-width="0.7"></circle></g><g class="key-Bermuda_0"><circle cx="372.00" cy="432.00" r="1.79" fill="#4d824b" opacity="0.8" stroke="#fff" stroke-width="0.7"></circle></g><g class="key-Cayman-Islands_0"><circle cx="121.00" cy="423.00" r="1.79" fill="#4d824b" opacity="0.8" stroke="#fff" stroke-width="0.7"></circle></g><g class="key-Marshall-Islands_0"><circle cx="165.00" cy="251.00" r="1.79" fill="#a652ba" opacity="0.8" stroke="#fff" stroke-width="0.7"></circle></g><g class="key-Greenland_0"><circle cx="406.00" cy="388.00" r="1.79" fill="#4d824b" opacity="0.8" stroke="#333" stroke-width="0.7"></circle></g><g class="key-American-Samoa_0"><circle cx="189.00" cy="366.00" r="1.79" fill="#a652ba" opacity="0.8" stroke="#fff" stroke-width="0.7"></circle></g><g class="key-Faeroe-Islands_0"><circle cx="353.00" cy="398.00" r="1.79" fill="#ec8e00" opacity="0.8" stroke="#fff" stroke-width="0.7"></circle></g><g class="key-Sint-Maarten-__0028Dutch-part__0029_0"><circle cx="208.00" cy="394.00" r="1.79" fill="#4d824b" opacity="0.8" stroke="#fff" stroke-width="0.7"></circle></g><g class="key-Liechtenstein_0"><circle cx="334.00" cy="429.00" r="1.79" fill="#ec8e00" opacity="0.8" stroke="#fff" stroke-width="0.7"></circle></g><g class="key-Monaco_0"><circle cx="367.00" cy="447.00" r="1.79" fill="#ec8e00" opacity="0.8" stroke="#333" stroke-width="0.7"></circle></g><g class="key-Saint-Martin-__0028French-part__0029_0"><circle cx="189.00" cy="385.00" r="1.79" fill="#4d824b" opacity="0.8" stroke="#fff" stroke-width="0.7"></circle></g><g class="key-San-Marino_0"><circle cx="353.00" cy="446.00" r="1.79" fill="#ec8e00" opacity="0.8" stroke="#fff" stroke-width="0.7"></circle></g><g class="key-Palau_0"><circle cx="469.00" cy="412.00" r="1.78" fill="#a652ba" opacity="0.8" stroke="#fff" stroke-width="0.7"></circle></g><g class="key-Kosovo_0"><circle cx="324.00" cy="372.00" r="1.78" fill="#ec8e00" opacity="0.8" stroke="#fff" stroke-width="0.7"></circle></g><g class="backgroundLabels" fill="#333"><text x="338.00" y="393.16" font-size="14.30">China</text><text x="339.00" y="334.73" font-size="14.09">India</text><text x="391.00" y="398.33" font-size="11.75">United States</text><text x="284.00" y="385.99" font-size="11.48">Brazil</text><text x="338.00" y="268.03" font-size="11.48">Pakistan</text><text x="587.00" y="179.32" font-size="11.43">Nigeria</text><text x="241.00" y="346.80" font-size="11.37">Bangladesh</text><text x="608.00" y="397.04" font-size="11.34">Russia</text><text x="493.00" y="440.37" font-size="11.30">Japan</text><text x="301.00" y="311.87" font-size="11.24">Philippines</text><text x="316.00" y="239.87" font-size="11.24">Ethiopia</text><text x="271.00" y="284.08" font-size="11.22">Egypt</text><text x="267.00" y="366.10" font-size="11.22">Vietnam</text><text x="527.00" y="428.36" font-size="11.19">Germany</text><text x="204.00" y="368.43" font-size="11.19">Iran</text><text x="465.00" y="152.45" font-size="11.18">Democratic Republic of Congo</text><text x="366.00" y="420.69" font-size="11.16">Thailand</text><text x="459.00" y="332.04" font-size="11.13">South Africa</text><text x="311.00" y="187.13" font-size="11.12">Tanzania</text><text x="379.00" y="358.13" font-size="11.12">Myanmar</text><text x="252.00" y="441.19" font-size="11.12">South Korea</text><text x="263.00" y="245.24" font-size="11.11">Kenya</text><text x="411.00" y="434.32" font-size="11.11">Spain</text><text x="656.69" y="421.37" font-size="11.10">Ukraine</text><text x="216.00" y="314.50" font-size="11.09">Algeria</text><text x="406.00" y="154.53" font-size="11.09">Uganda</text><text x="478.00" y="423.59" font-size="11.09">Poland</text><text x="229.00" y="229.63" font-size="11.09">Iraq</text><text x="158.00" y="343.77" font-size="11.08">Saudi Arabia</text><text x="379.00" y="247.91" font-size="11.07">Ghana</text><text x="473.00" y="181.94" font-size="11.06">Mozambique</text><text x="472.00" y="204.08" font-size="11.06">Cameroon</text><text x="576.00" y="200.09" font-size="11.06">Cote d&#x27;Ivoire</text><text x="454.00" y="120.65" font-size="11.05">Niger</text><text x="400.00" y="182.29" font-size="11.04">Burkina Faso</text><text x="281.00" y="397.31" font-size="11.04">Chile</text><text x="337.00" y="201.35" font-size="11.04">Malawi</text><text x="220.00" y="297.38" font-size="11.04">Guatemala</text><text x="362.00" y="189.39" font-size="11.04">Zambia</text><text x="271.00" y="210.45" font-size="11.03">Senegal</text><text x="376.00" y="231.49" font-size="11.03">Zimbabwe</text><text x="433.00" y="208.59" font-size="11.03">Guinea</text><text x="401.00" y="306.63" font-size="11.03">Haiti</text><text x="430.00" y="409.68" font-size="11.02">Sweden</text><text x="613.00" y="427.69" font-size="11.02">Hungary</text><text x="171.00" y="287.70" font-size="11.02">Jordan</text><text x="63.00" y="428.70" font-size="11.02">United Arab Emirates</text><text x="218.00" y="326.71" font-size="11.02">Honduras</text><text x="235.00" y="267.74" font-size="11.02">Tajikistan</text><text x="601.00" y="215.81" font-size="11.02">Sierra Leone</text><text x="674.46" y="432.81" font-size="11.02">Bulgaria</text><text x="209.00" y="379.84" font-size="11.02">Lebanon</text><text x="311.00" y="353.86" font-size="11.01">El Salvador</text><text x="328.00" y="296.89" font-size="11.01">Turkmenistan</text><text x="340.00" y="218.93" font-size="11.01">Congo</text><text x="155.00" y="242.95" font-size="11.01">Palestine</text><text x="109.00" y="351.96" font-size="11.01">Oman</text><text x="119.00" y="371.98" font-size="11.01">Kuwait</text><text x="323.00" y="370.04" font-size="11.01">Jamaica</text><text x="599.00" y="276.09" font-size="11.00">Lesotho</text><text x="100.00" y="386.13" font-size="11.00">Bahrain</text><text x="478.00" y="224.14" font-size="11.00">Equatorial Guinea</text><text x="319.00" y="419.14" font-size="11.00">Cyprus</text><text x="449.00" y="268.15" font-size="11.00">Swaziland</text><text x="382.00" y="337.17" font-size="11.00">Guyana</text><text x="170.00" y="408.18" font-size="11.00">Macao</text><text x="147.00" y="356.19" font-size="11.00">Maldives</text><text x="159.00" y="376.19" font-size="11.00">Brunei</text><text x="505.00" y="410.20" font-size="11.00">Barbados</text><text x="194.00" y="436.21" font-size="11.00">Andorra</text><text x="406.00" y="385.21" font-size="11.00">Greenland</text><text x="367.00" y="444.21" font-size="11.00">Monaco</text></g></g><g class="ScatterColorLegend clickable" style="cursor:pointer"><g class="legendMark"><rect x="735" y="107.10000000000001" width="43.256" height="17.6" fill="#fff" opacity="0"></rect>,<rect x="735" y="112.60000000000001" width="6" height="6" fill="#5675c1"></rect>,<text font-size="12.60" x="746.0" y="119.7"><tspan x="746" y="119.68">Africa</tspan></text></g><g class="legendMark"><rect x="735" y="124.70000000000002" width="35.57" height="17.6" fill="#fff" opacity="0"></rect>,<rect x="735" y="130.20000000000002" width="6" height="6" fill="#d14e5b"></rect>,<text font-size="12.60" x="746.0" y="137.3"><tspan x="746" y="137.28">Asia</tspan></text></g><g class="legendMark"><rect x="735" y="142.3" width="51.824" height="17.6" fill="#fff" opacity="0"></rect>,<rect x="735" y="147.8" width="6" height="6" fill="#ec8e00"></rect>,<text font-size="12.60" x="746.0" y="154.9"><tspan x="746" y="154.88">Europe</tspan></text></g><g class="legendMark"><rect x="735" y="159.9" width="91.64" height="17.6" fill="#fff" opacity="0"></rect>,<rect x="735" y="165.4" width="6" height="6" fill="#4d824b"></rect>,<text font-size="12.60" x="746.0" y="172.5"><tspan x="746" y="172.48">North America</tspan></text></g><g class="legendMark"><rect x="735" y="177.5" width="58.124" height="17.6" fill="#fff" opacity="0"></rect>,<rect x="735" y="183" width="6" height="6" fill="#a652ba"></rect>,<text font-size="12.60" x="746.0" y="190.1"><tspan x="746" y="190.07999999999998">Oceania</tspan></text></g><g class="legendMark"><rect x="735" y="195.10000000000002" width="93.908" height="17.6" fill="#fff" opacity="0"></rect>,<rect x="735" y="200.60000000000002" width="6" height="6" fill="#69c487"></rect>,<text font-size="12.60" x="746.0" y="207.7"><tspan x="746" y="207.68">South America</tspan></text></g></g></g><g class="SourcesFooter" style="fill:#777"><g class="clickable" style="fill:#777"><text font-size="12.60" x="15.0" y="581.6"><tspan x="15" y="581.58">Source: World Bank, Population (Gapminder, HYDE(2016) &amp; UN (2019))</tspan></text></g><text font-size="12.60" x="528.2" y="581.6"><tspan x="528.19" y="581.58"><a target='_blank' style='fill: #777;' href='https://ourworldindata.org/world-population-growth/'>OurWorldInData.org/world-population-growth/</a> • <a style="fill: #777;" class="cclogo" href="http://creativecommons.org/licenses/by/4.0/deed.en_US" target="_blank">CC BY</a></tspan></text></g></svg>